<svg xmlns="http://www.w3.org/2000/svg" direction="ltr" width="160.54" height="207.36" viewBox="655.72 284.31 160.54 207.36" stroke-linecap="round" stroke-linejoin="round" style="background-color: rgb(19, 19, 21);"><defs/><g transform="matrix(1, 0, 0, 1, 734.07, 397.14)" opacity="1"><path d="M-1.4429,-1.7958 Q-1.0684,-3.2269 -0.671,-4.5506 T0.2601,-7.2061 1.01,-9.5331 1.45,-11.4397 2.00,-13.5117 2.59,-15.6123 2.99,-17.5087 3.36,-20.1244 3.69,-23.0171 3.93,-25.4117 4.12,-27.9973 4.19,-30.4001 4.15,-32.4318 4.09,-34.4492 4.12,-36.9404 4.22,-39.4891 4.24,-41.8649 4.20,-44.5927 4.14,-46.9161 4.08,-48.9668 4.02,-51.2668 3.98,-53.4086 3.94,-55.4043 4.07,-57.933 4.24,-60.4098 4.25,-62.6497 4.20,-64.965 3.95,-67.1835 3.71,-69.3566 3.31,-71.5565 2.73,-73.6595 2.40,-75.6705 2.27,-77.9124 2.93,-80.3343 4.68,-82.1469 6.68,-82.923 8.84,-83.2208 11.29,-83.2764 13.41,-82.9405 15.81,-82.431 18.59,-81.2961 20.69,-79.3154 22.04,-77.3344 22.73,-75.3624 23.26,-73.0047 23.97,-70.2635 24.44,-67.8042 24.79,-65.603 25.05,-63.2914 25.05,-60.6783 25.09,-58.1919 25.22,-56.0937 25.86,-53.8928 26.56,-51.5086 26.83,-49.169 27.03,-46.7834 27.02,-43.6325 26.96,-40.7102 27.09,-36.2571 27.25,-31.2259 27.34,-28.3786 27.52,-25.7729 27.72,-23.3866 27.87,-21.3614 27.96,-18.5213 27.97,-15.7324 27.94,-13.8065 27.82,-11.7919 27.40,-8.6742 26.86,-5.6297 26.49,-3.2913 25.36,-2.1013 25.48,-2.0508 27.79,-2.1332 29.95,-2.6615 31.95,-3.3017 34.01,-3.7706 36.31,-3.7229 38.63,-3.2492 40.94,-2.5351 43.11,-1.2543 44.97,0.4298 46.77,1.7183 48.81,2.7542 50.97,4.5632 52.09,6.8318 52.23,8.8613 52.23,10.9638 52.04,13.1949 51.65,15.7241 51.43,18.0455 51.42,20.075 51.61,22.3071 52.04,24.5707 52.28,26.8046 52.44,28.9092 52.63,31.1185 52.71,33.3533 52.74,35.3049 52.60,37.4563 51.78,40.0215 50.14,43.0882 48.13,45.9675 45.44,49.4349 43.06,52.8111 41.63,55.229 40.52,57.6862 39.59,59.6607 38.12,61.024 36.04,61.866 33.87,62.2333 31.86,62.2929 29.80,62.3035 27.76,62.0569 25.56,61.6708 22.96,61.4739 20.30,61.401 17.37,61.3534 14.78,61.2953 11.77,61.2025 8.69,61.1147 6.35,61.1234 4.12,61.2029 2.12,61.2902 -0.0549,61.5288 -2.6686,61.8004 -5.4553,62.013 -8.6835,62.625 -11.5771,63.2063 -13.6614,63.3593 -15.9337,63.5679 -18.2142,63.8594 -20.8879,64.1415 -23.5559,64.3799 -25.6613,64.5096 -27.646,64.5381 -29.7911,63.9638 -32.2398,62.7741 -35.2426,60.4596 -37.9692,57.6547 -39.6997,55.8697 -41.17,54.4515 -43.0842,52.4671 -45.1266,49.9709 -46.6807,47.4644 -47.711,45.3367 -48.2514,43.2718 -48.3536,40.6776 -48.2527,38.1416 -47.8718,36.0978 -47.3793,34.0889 -47.1458,31.8439 -46.9097,29.153 -46.5388,26.499 -45.7295,24.1765 -44.4164,21.6618 -43.2807,19.2602 -42.514,16.7353 -41.9028,14.1906 -41.2013,12.0873 -40.0681,10.179 -38.8054,8.1278 -37.6718,6.151 -36.5073,4.5013 -34.9493,2.4078 -32.3759,-0.116 -29.3926,-1.9958 -26.8682,-3.081 -24.6921,-3.6196 -22.5854,-3.7024 -20.4412,-3.7096 -18.4583,-3.5761 -16.6087,-3.1872 -14.6927,-2.9426 -12.6358,-2.9424 -10.61,-2.9435 -8.701,-2.9535 -5.8617,-2.8203 -2.4846,-2.5522 0.38,-2.3439 3.43,-2.174 5.37,-2.042 5.87,-1.8732 6.29,-1.5533 6.59,-1.1158 6.73,-0.6065 6.70,-0.0788 6.50,0.4123 6.16,0.8151 5.71,1.0875 5.19,1.2011 4.67,1.1439 4.19,0.9219 3.80,0.5584 3.56,0.0914 3.47,-0.4302 3.56,-0.9518 3.80,-1.4188 4.19,-1.7822 4.67,-2.004 5.19,-2.0611 5.71,-1.9474 6.16,-1.6748 6.50,-1.2718 6.70,-0.7808 6.73,-0.253 6.59,0.2563 6.29,0.6937 5.87,1.0134 5.37,1.1821 5.10,1.2253 3.43,1.314 0.38,1.4839 -2.4846,1.6922 -5.8617,1.9603 -8.7012,2.0934 -10.6108,2.0832 -12.6441,2.0806 -14.851,2.0492 -16.9724,1.8683 -18.9451,1.4364 -21.1406,1.1541 -23.4808,1.0927 -25.8478,1.5508 -28.0693,2.506 -29.9725,4.0917 -31.7184,6.3227 -33.2464,8.3915 -34.3062,10.2703 -35.2782,12.1272 -36.5156,13.962 -37.3578,15.8386 -37.7161,17.8021 -38.2866,19.6096 -39.0424,21.3589 -39.9959,23.1231 -41.1366,25.059 -41.8626,27.0475 -42.2344,28.9054 -42.4583,31.0304 -42.729,33.9501 -43.356,37.1079 -43.9661,39.4979 -44.1481,41.5303 -43.8638,43.6942 -43.1156,45.8124 -42.0774,47.7867 -40.4918,49.9573 -38.7052,51.9153 -37.2627,53.3284 -35.4217,54.966 -32.4158,57.2632 -29.4983,59.2261 -27.5475,60.1821 -25.713,60.537 -23.6891,60.588 -21.1747,60.5626 -18.7099,60.4008 -16.323,60.0111 -13.9387,59.6785 -11.2603,59.409 -8.4733,58.853 -6.0207,58.2267 -2.8816,57.5867 -0.0044,57.0898 2.12,56.9898 4.12,57.0772 6.35,57.157 8.69,57.1662 11.78,57.0801 15.67,56.9719 18.94,56.9287 21.75,56.9513 24.62,57.0598 27.43,57.4111 30.29,57.6772 32.98,57.6888 35.16,57.7588 36.64,56.9864 37.79,55.0062 38.93,52.9679 40.05,50.8975 42.27,47.1555 44.48,43.5976 45.57,41.6915 46.40,39.8402 47.23,37.5823 47.65,35.3141 47.66,33.4309 47.58,31.3409 47.37,29.0718 47.23,26.776 46.98,24.061 46.57,21.0729 46.44,18.5558 46.68,16.2839 46.96,14.1295 47.17,12.1103 47.29,10.0271 47.05,8.0711 45.69,6.549 43.73,5.2803 41.90,3.8045 40.22,2.3371 38.30,1.2241 36.13,0.6661 34.14,0.5818 31.91,0.9902 29.56,1.5666 27.27,1.8979 24.80,1.9041 22.95,-0.3183 22.69,-3.9211 23.31,-7.282 23.75,-10.1186 23.87,-12.9094 23.92,-15.732 23.92,-18.5153 24.01,-21.3341 24.11,-23.3086 24.18,-25.6352 24.14,-28.1893 23.89,-30.9835 23.39,-36.0642 23.01,-40.586 22.77,-43.3535 22.43,-46.0251 22.00,-48.8239 21.47,-51.7414 20.81,-54.1613 20.25,-56.755 20.06,-59.181 20.03,-61.5949 20.01,-63.9606 19.74,-66.5102 19.22,-68.8584 18.81,-70.7644 18.33,-73.216 17.40,-75.5031 15.89,-76.9497 13.95,-77.7043 11.93,-78.0826 9.93,-78.3 8.00,-77.903 7.10,-76.6007 7.35,-74.2809 7.93,-71.7209 8.29,-69.3885 8.45,-67.1349 8.55,-64.965 8.50,-62.6497 8.51,-60.4098 8.68,-57.933 8.81,-55.4043 8.77,-53.4086 8.73,-51.2668 8.67,-48.9668 8.61,-46.9161 8.55,-44.5927 8.51,-41.8649 8.53,-39.489 8.62,-36.629 8.63,-33.647 8.53,-31.4729 8.41,-29.1098 8.15,-25.8528 7.80,-22.9887 7.33,-20.8802 6.84,-18.7451 6.36,-16.6882 5.75,-14.6971 4.88,-11.7907 3.99,-8.6164 3.26,-6.2307 2.53,-3.789 2.02,-1.1 1.67,0.6985 1.28,1.2876 0.69,1.6807 -0.0031,1.8179 -0.6986,1.6784 -1.2877,1.2833 -1.6807,0.6928 -1.8179,-0.0032 -1.8173,-0.3647 -1.4429,-1.7958 Z" fill="#e03131" stroke-linecap="round"/></g><g transform="matrix(1, 0, 0, 1, 692.80, 425.64)" opacity="1"><path d="M1.5493,-1.6511 Q2.5079,-1.3409 4.16,-0.7308 T7.5819,0.3482 11.65,1.2235 15.07,1.7392 17.35,1.8733 19.71,1.8473 22.17,1.7753 24.59,1.9863 26.90,2.4666 29.04,2.833 31.55,3.021 34.63,3.3719 37.74,3.8215 41.03,4.328 44.29,4.8378 46.94,5.0414 49.38,5.0791 51.60,5.0534 53.48,4.9935 55.36,4.9536 57.66,4.7542 60.13,4.3363 62.39,3.8772 64.62,3.6192 66.73,3.5683 68.71,3.2714 70.70,2.5802 72.65,1.9777 74.66,1.7731 76.66,1.3416 78.49,0.6639 80.44,0.0739 82.84,0.4338 84.28,1.114 84.61,1.2583 85.09,1.614 85.47,2.0736 85.72,2.6102 85.84,3.1928 85.82,3.7873 85.66,4.3594 85.36,4.8757 84.95,5.3063 84.45,5.626 83.89,5.8164 83.29,5.8663 82.71,5.7729 81.35,4.9571 79.90,3.8493 79.29,3.1523 78.93,2.4481 78.81,1.6655 78.95,0.8866 79.33,0.1928 79.91,-0.3432 80.63,-0.6653 81.42,-0.7397 82.19,-0.5586 82.86,-0.1411 83.37,0.4691 83.65,1.2083 83.68,1.9989 83.46,2.7582 83.01,3.4068 82.37,3.8766 81.62,4.1186 80.83,4.1073 80.08,3.844 79.46,3.3562 79.02,2.695 78.82,1.9296 78.87,1.1402 79.18,0.4094 79.70,-0.1863 80.38,-0.5844 81.16,-0.7434 81.94,-0.6466 82.66,-0.3041 82.98,-0.0746 83.67,0.5172 84.61,1.2583 85.09,1.614 85.47,2.0736 85.72,2.6102 85.84,3.1928 85.82,3.7873 85.66,4.3594 85.36,4.8757 84.95,5.3063 84.45,5.626 83.89,5.8164 83.29,5.8663 82.71,5.7729 82.14,5.0531 81.00,4.806 79.18,5.5824 77.07,6.3654 74.78,6.7899 72.56,7.1592 70.39,7.9438 68.25,8.3816 66.09,8.3841 64.03,8.4303 61.90,8.7975 59.55,9.1784 57.34,9.3741 55.37,9.5059 53.21,9.4516 50.78,9.3583 48.18,9.2628 45.21,9.0964 42.65,8.8285 40.14,8.4191 37.20,7.9502 34.78,7.3981 32.68,6.9553 30.61,6.7967 28.52,6.631 25.41,6.2148 21.80,5.8545 19.24,5.7121 17.07,5.4717 14.72,5.2339 11.79,5.0488 8.22,4.512 5.42,3.8463 2.88,3.0638 0.37,2.2321 -0.9435,1.7737 -1.5505,1.2776 -1.9214,0.5869 -1.9997,-0.193 -1.7736,-0.9436 -1.2775,-1.5505 -0.5869,-1.9214 0.19,-1.9997 0.59,-1.9613 1.54,-1.6511 Z" fill="#e1e1e1" stroke-linecap="round"/></g><g transform="matrix(1, 0, 0, 1, 739.17, 369.06)" opacity="1"><path d="M0.8692,-2.2706 Q1.7383,-2.2476 3.11,-2.2402 T5.5274,-2.2599 7.77,-2.6266 9.91,-3.0984 11.76,-3.6256 13.60,-4.0941 15.64,-4.1578 17.78,-4.0962 19.84,-3.9958 22.41,-3.9294 24.08,-2.563 23.98,-0.9727 23.39,-0.8715 22.76,-1.2559 22.29,-1.8208 22.02,-2.5071 21.98,-3.2429 22.19,-3.9511 22.60,-4.5577 23.19,-4.9991 23.89,-5.2292 24.63,-5.2237 25.33,-4.9833 25.91,-4.5331 26.32,-3.9204 26.51,-3.2092 26.46,-2.474 26.19,-1.7917 25.71,-1.2339 25.07,-0.8589 24.35,-0.706 23.62,-0.7912 22.95,-1.1055 22.42,-1.6161 22.08,-2.2695 21.97,-2.9973 22.09,-3.7233 22.44,-4.3714 22.98,-4.8739 23.65,-5.1781 24.39,-5.2521 24.76,-5.2291 25.93,-4.6637 27.52,-3.1082 27.47,-1.2862 25.47,0.0289 22.41,0.5311 19.85,0.5995 17.16,0.7172 14.54,0.8158 12.52,1.2146 10.51,1.6345 8.06,1.9864 5.52,2.2599 3.11,2.2402 0.86,2.2706 -0.4389,2.2063 -1.2498,1.8704 -1.8705,1.2497 -2.2063,0.4388 -2.2063,-0.439 -1.8703,-1.2499 -1.2496,-1.8705 -0.4387,-2.2064 0.00,-2.2936 0.86,-2.2706 Z" fill="#e1e1e1" stroke-linecap="round"/></g><g transform="matrix(1, 0, 0, 1, 740.88, 342.26)" opacity="1"><path d="M1.255,-1.9341 Q2.5099,-1.8805 3.87,-1.8173 T6.3626,-1.7445 9.28,-1.7691 12.05,-1.8581 14.39,-1.9738 16.06,-1.9813 16.68,-1.7739 17.19,-1.3807 17.56,-0.843 17.73,-0.217 17.70,0.4317 17.46,1.0352 17.03,1.5303 16.48,1.8652 15.84,2.0048 15.20,1.9345 14.61,1.6617 14.14,1.2148 13.83,0.6408 13.73,-0.0003 13.83,-0.6414 14.14,-1.2153 14.61,-1.662 15.20,-1.9347 15.84,-2.0048 16.48,-1.865 17.04,-1.5299 17.46,-1.0347 17.70,-0.4311 17.73,0.2176 17.56,0.8435 17.19,1.3811 16.67,1.7741 16.06,1.9814 15.73,2.0346 14.39,1.9738 12.05,1.8581 9.28,1.7691 6.36,1.7445 3.87,1.8173 1.25,1.9341 -0.3803,1.9121 -1.0831,1.621 -1.621,1.083 -1.9121,0.3803 -1.912,-0.3804 -1.6209,-1.0832 -1.083,-1.6211 -0.3802,-1.9121 0.00,-1.9877 1.25,-1.9341 Z" fill="#e1e1e1" stroke-linecap="round"/></g></svg>